
<svg width="376px" height="40px" viewBox="0 0 376 40" version="1.1" xmlns="http://www.w3.org/2000/svg" xmlns:xlink="http://www.w3.org/1999/xlink">
    <desc>Created with Sketch.</desc>
    <defs></defs>
    <g id="Website" stroke="none" stroke-width="1" fill="none" fill-rule="evenodd">
        <g id="3" transform="translate(-256.000000, -4284.000000)" fill="#D8271D" fill-rule="nonzero">
            <g id="noun_pattern_1031673" transform="translate(256.000000, 4284.000000)">
                <polygon id="Shape" points="37.9673944 39.7850496 37.6341838 39.4406073 0.19479335 0.848083583 0.868702378 0.19663819 37.9748822 38.4484634 75.4105287 1.01656084 112.849919 38.4559513 150.28931 1.01656084 187.7287 38.4559513 225.168091 1.01656084 225.501301 1.34602748 262.607481 38.4559513 300.046871 1.01656084 300.380082 1.34602748 337.49375 38.4634392 374.603674 3.07198338 375.247631 3.74963634 337.478774 39.7700739 337.153051 39.4480951 300.046871 2.33817132 262.607481 39.7775618 262.27427 39.4480951 225.168091 2.33817132 187.7287 39.7775618 150.28931 2.33817132 112.849919 39.7775618 75.4105287 2.33817132"></polygon>
            </g>
        </g>
    </g>
</svg>