
<svg width="180px" height="163px" viewBox="0 0 180 163" version="1.1" xmlns="http://www.w3.org/2000/svg" xmlns:xlink="http://www.w3.org/1999/xlink">
    <desc>Created with Sketch.</desc>
    <defs></defs>
    <g id="Website" stroke="none" stroke-width="1" fill="none" fill-rule="evenodd">
        <g id="3" transform="translate(-1103.000000, -3914.000000)" fill="#D8271D" fill-rule="nonzero">
            <g id="noun_pattern_1031673" transform="translate(1103.000000, 3914.000000)">
                <polygon id="Shape" points="18.1758803 19.0314397 18.0163646 18.8666735 0.0932521358 0.405686351 0.41586816 0.0940631693 18.1794649 18.3920749 36.100785 0.486278553 54.0238975 18.3956568 71.9470099 0.486278553 89.8701224 18.3956568 107.793235 0.486278553 107.952751 0.643881082 125.716347 18.3956568 143.63946 0.486278553 143.798975 0.643881082 161.566157 18.3992387 179.331546 1.46950342 179.639823 1.79366317 161.558988 19.024276 161.403056 18.8702553 143.63946 1.11847961 125.716347 19.0278579 125.556832 18.8702553 107.793235 1.11847961 89.8701224 19.0278579 71.9470099 1.11847961 54.0238975 19.0278579 36.100785 1.11847961"></polygon>
                <polygon id="Shape" points="18.1758803 55.4018051 18.0163646 55.2388298 0.0932521358 36.7760517 0.41586816 36.4644285 18.1794649 54.7642312 36.100785 36.8566439 54.0238975 54.7660222 71.9470099 36.8566439 89.8701224 54.7660222 107.793235 36.8566439 107.952751 37.0160374 125.716347 54.7660222 143.63946 36.8566439 143.798975 37.0160374 161.566157 54.7696041 179.331546 37.8434507 179.639823 38.1658195 161.558988 55.3964323 161.403056 55.2406207 143.63946 37.4906359 125.716347 55.4000142 125.556832 55.2406207 107.793235 37.4906359 89.8701224 55.4000142 71.9470099 37.4906359 54.0238975 55.4000142 36.100785 37.4906359"></polygon>
                <polygon id="Shape" points="18.1758803 91.2205616 18.0163646 91.0575863 0.0932521358 72.5948082 0.41586816 72.2831851 18.1794649 90.5829878 36.100785 72.6754004 54.0238975 90.5847787 71.9470099 72.6754004 89.8701224 90.5847787 107.793235 72.6754004 107.952751 72.8347939 125.716347 90.5847787 143.63946 72.6754004 143.798975 72.8347939 161.566157 90.5883606 179.331546 73.6622072 179.639823 73.984576 161.558988 91.2151888 161.403056 91.0611682 143.63946 73.3093924 125.716347 91.2187707 125.556832 91.0611682 107.793235 73.3093924 89.8701224 91.2187707 89.712399 91.0611682 71.9470099 73.3093924 54.0238975 91.2187707 53.8661741 91.0611682 36.100785 73.3093924"></polygon>
                <polygon id="Shape" points="18.1758803 127.039318 18.0163646 126.876343 0.0932521358 108.413565 0.41586816 108.101942 18.1794649 126.401744 36.100785 108.494157 36.2585084 108.651759 54.0238975 126.403535 71.9470099 108.494157 72.1047333 108.651759 89.8701224 126.403535 107.793235 108.494157 107.952751 108.651759 125.716347 126.403535 143.63946 108.494157 143.798975 108.651759 161.566157 126.407117 179.331546 109.479173 179.639823 109.805123 161.558988 127.033945 161.403056 126.879925 143.63946 109.128149 125.716347 127.037527 125.556832 126.879925 107.793235 109.128149 89.8701224 127.037527 89.712399 126.879925 71.9470099 109.128149 54.0238975 127.037527 53.8661741 126.879925 36.100785 109.128149"></polygon>
                <polygon id="Shape" points="18.1758803 162.858075 18.0163646 162.695099 0.0932521358 144.232321 0.41586816 143.920698 18.1794649 162.220501 36.100785 144.312913 36.2585084 144.470516 54.0238975 162.222292 71.9470099 144.312913 72.1047333 144.470516 89.8701224 162.222292 107.793235 144.312913 107.952751 144.470516 125.716347 162.222292 143.63946 144.312913 143.798975 144.470516 161.566157 162.225874 179.331546 145.297929 179.639823 145.62388 161.558988 162.852702 161.403056 162.698681 143.63946 144.946905 125.716347 162.856284 125.556832 162.698681 107.793235 144.946905 89.8701224 162.856284 89.712399 162.698681 71.9470099 144.946905 54.0238975 162.856284 53.8661741 162.698681 36.100785 144.946905"></polygon>
            </g>
        </g>
    </g>
</svg>