<svg width="15px" height="10px" viewBox="0 0 30 20" version="1.1" xmlns="http://www.w3.org/2000/svg" xmlns:xlink="http://www.w3.org/1999/xlink">
    <defs></defs>
    <g id="Website" stroke="none" stroke-width="1" fill="none" fill-rule="evenodd">
        <g id="4" transform="translate(-1807.000000, -1481.000000)" fill="#D7261C" fill-rule="nonzero">
            <g id="noun_Arrow_1888042" transform="translate(1807.000000, 1481.000000)">
                <path d="M29.7078871,10.0519343 C29.6993347,9.71741142 29.5985639,9.51574984 29.4695647,9.37101326 L22.3879586,0.655218342 C22.0534901,0.183612421 21.2954343,0.108983474 20.8215678,0.491938921 C20.3476467,0.874894368 20.3224799,1.59093461 20.7027062,2.01706045 L26.3373279,8.96246063 L1.38152229,8.96246063 C0.779805979,8.96246063 0.292048611,9.450218 0.292048611,10.0519343 C0.292048611,10.6536506 0.779805979,11.141408 1.38152229,11.141408 L26.3373279,11.141408 L20.7027062,18.0868027 C20.2713836,18.5171993 20.3939493,19.2720956 20.8492404,19.677053 C21.1996696,19.9888059 22.1336754,19.8894459 22.3879586,19.4486448 L29.4695647,10.7328554 C29.6539854,10.5071164 29.7101314,10.339283 29.7078871,10.0519343 Z" id="Shape"></path>
            </g>
        </g>
    </g>
</svg>